<?xml version="1.0" encoding="UTF-8"?>
<svg width="856px" height="208px" viewBox="0 0 856 208" version="1.1" xmlns="http://www.w3.org/2000/svg" xmlns:xlink="http://www.w3.org/1999/xlink">
    <!-- Generator: Sketch 55.1 (78136) - https://sketchapp.com -->
    <title>Group 7</title>
    <desc>Created with Sketch.</desc>
    <defs>
        <path d="M282.500672,151.583086 L312.182038,127.862461 C324.865954,117.725783 324.865954,101.245458 312.182038,91.0526246 L282.284608,67.0269599 L298.535767,54.0394287 C311.219684,43.9027513 331.784376,43.948275 344.468293,54.1411087 L390.400818,91.0526246 C403.084734,101.245458 403.084734,117.725783 390.400818,127.862461 L344.468293,164.570617 C331.784376,174.707294 311.219684,174.661771 298.535767,164.468937 L282.500672,151.583086 Z" id="path-1"></path>
        <filter x="-25.5%" y="-19.1%" width="151.0%" height="147.7%" filterUnits="objectBoundingBox" id="filter-2">
            <feOffset dx="0" dy="6" in="SourceAlpha" result="shadowOffsetOuter1"></feOffset>
            <feGaussianBlur stdDeviation="9" in="shadowOffsetOuter1" result="shadowBlurOuter1"></feGaussianBlur>
            <feColorMatrix values="0 0 0 0 0   0 0 0 0 0   0 0 0 0 0  0 0 0 0.5 0" type="matrix" in="shadowBlurOuter1"></feColorMatrix>
        </filter>
        <linearGradient x1="63.2552478%" y1="39.8814153%" x2="21.0162163%" y2="68.0323636%" id="linearGradient-3">
            <stop stop-color="#7562DF" offset="0%"></stop>
            <stop stop-color="#178CD9" offset="100%"></stop>
        </linearGradient>
        <path d="M222.965597,54.1411087 L268.898122,91.0526246 C281.582039,101.245458 281.582039,117.725783 268.898122,127.862461 L222.965597,164.570617 C210.28168,174.707294 189.716988,174.661771 177.033072,164.468937 L131.100546,127.557421 C118.41663,117.364587 118.41663,100.884262 131.100546,90.7475848 L177.033072,54.0394287 C189.716988,43.9027513 210.28168,43.948275 222.965597,54.1411087 Z" id="path-4"></path>
        <filter x="-19.1%" y="-19.1%" width="138.3%" height="147.7%" filterUnits="objectBoundingBox" id="filter-5">
            <feOffset dx="0" dy="6" in="SourceAlpha" result="shadowOffsetOuter1"></feOffset>
            <feGaussianBlur stdDeviation="9" in="shadowOffsetOuter1" result="shadowBlurOuter1"></feGaussianBlur>
            <feColorMatrix values="0 0 0 0 0   0 0 0 0 0   0 0 0 0 0  0 0 0 0.5 0" type="matrix" in="shadowBlurOuter1"></feColorMatrix>
        </filter>
        <linearGradient x1="77.2144339%" y1="30.3585803%" x2="21.4427024%" y2="68.2747594%" id="linearGradient-6">
            <stop stop-color="#F88909" offset="0%"></stop>
            <stop stop-color="#C858C0" offset="100%"></stop>
        </linearGradient>
        <path d="M222.965597,30.9078076 L268.898122,67.8193236 C281.582039,78.0121573 281.582039,94.4924822 268.898122,104.62916 L222.965597,141.337316 C210.28168,151.473993 189.716988,151.428469 177.033072,141.235636 L131.100546,104.32412 C118.41663,94.1312861 118.41663,77.6509612 131.100546,67.5142838 L177.033072,30.8061277 C189.716988,20.6694503 210.28168,20.7149739 222.965597,30.9078076 Z" id="path-7"></path>
        <filter x="-19.1%" y="-19.1%" width="138.3%" height="147.7%" filterUnits="objectBoundingBox" id="filter-8">
            <feOffset dx="0" dy="6" in="SourceAlpha" result="shadowOffsetOuter1"></feOffset>
            <feGaussianBlur stdDeviation="9" in="shadowOffsetOuter1" result="shadowBlurOuter1"></feGaussianBlur>
            <feColorMatrix values="0 0 0 0 0   0 0 0 0 0   0 0 0 0 0  0 0 0 0.5 0" type="matrix" in="shadowBlurOuter1"></feColorMatrix>
        </filter>
        <path d="M282.500672,105.116484 L312.182038,81.3958585 C324.865954,71.2591811 324.865954,54.7788562 312.182038,44.5860225 L282.284608,20.5603577 L298.535767,7.57282662 C311.219684,-2.56385079 331.784376,-2.51832713 344.468293,7.67450655 L390.400818,44.5860225 C403.084734,54.7788562 403.084734,71.2591811 390.400818,81.3958585 L344.468293,118.104015 C331.784376,128.240692 311.219684,128.195168 298.535767,118.002335 L282.500672,105.116484 Z" id="path-9"></path>
        <filter x="-25.5%" y="-19.1%" width="151.0%" height="147.7%" filterUnits="objectBoundingBox" id="filter-10">
            <feOffset dx="0" dy="6" in="SourceAlpha" result="shadowOffsetOuter1"></feOffset>
            <feGaussianBlur stdDeviation="9" in="shadowOffsetOuter1" result="shadowBlurOuter1"></feGaussianBlur>
            <feColorMatrix values="0 0 0 0 0   0 0 0 0 0   0 0 0 0 0  0 0 0 0.5 0" type="matrix" in="shadowBlurOuter1"></feColorMatrix>
        </filter>
        <linearGradient x1="76.5546727%" y1="31.7310732%" x2="22.7957979%" y2="68.78245%" id="linearGradient-11">
            <stop stop-color="#926EDC" offset="0%"></stop>
            <stop stop-color="#178CD9" offset="100%"></stop>
        </linearGradient>
        <path d="M222.965597,7.67450655 L268.898122,44.5860225 C281.582039,54.7788562 281.582039,71.2591811 268.898122,81.3958585 L222.965597,118.104015 C210.28168,128.240692 189.716988,128.195168 177.033072,118.002335 L131.100546,81.0908188 C118.41663,70.8979851 118.41663,54.4176601 131.100546,44.2809827 L177.033072,7.57282662 C189.716988,-2.56385079 210.28168,-2.51832713 222.965597,7.67450655 Z" id="path-12"></path>
        <filter x="-19.1%" y="-19.1%" width="138.3%" height="147.7%" filterUnits="objectBoundingBox" id="filter-13">
            <feOffset dx="0" dy="6" in="SourceAlpha" result="shadowOffsetOuter1"></feOffset>
            <feGaussianBlur stdDeviation="9" in="shadowOffsetOuter1" result="shadowBlurOuter1"></feGaussianBlur>
            <feColorMatrix values="0 0 0 0 0   0 0 0 0 0   0 0 0 0 0  0 0 0 0.5 0" type="matrix" in="shadowBlurOuter1"></feColorMatrix>
        </filter>
        <path d="M0.216063989,151.583086 L29.8974297,127.862461 C42.5813463,117.725783 42.5813463,101.245458 29.8974297,91.0526246 L1.0658141e-14,67.0269599 L16.2511595,54.0394287 C28.9350761,43.9027513 49.4997681,43.948275 62.1836847,54.1411087 L108.11621,91.0526246 C120.800127,101.245458 120.800127,117.725783 108.11621,127.862461 L62.1836847,164.570617 C49.4997681,174.707294 28.9350761,174.661771 16.2511595,164.468937 L0.216063989,151.583086 Z" id="path-14"></path>
        <filter x="-25.5%" y="-19.1%" width="151.0%" height="147.7%" filterUnits="objectBoundingBox" id="filter-15">
            <feOffset dx="0" dy="6" in="SourceAlpha" result="shadowOffsetOuter1"></feOffset>
            <feGaussianBlur stdDeviation="9" in="shadowOffsetOuter1" result="shadowBlurOuter1"></feGaussianBlur>
            <feColorMatrix values="0 0 0 0 0   0 0 0 0 0   0 0 0 0 0  0 0 0 0.5 0" type="matrix" in="shadowBlurOuter1"></feColorMatrix>
        </filter>
        <path d="M0.216063989,128.349785 L29.8974297,104.62916 C42.5813463,94.4924822 42.5813463,78.0121573 29.8974297,67.8193236 L1.0658141e-14,43.7936588 L16.2511595,30.8061277 C28.9350761,20.6694503 49.4997681,20.7149739 62.1836847,30.9078076 L108.11621,67.8193236 C120.800127,78.0121573 120.800127,94.4924822 108.11621,104.62916 L62.1836847,141.337316 C49.4997681,151.473993 28.9350761,151.428469 16.2511595,141.235636 L0.216063989,128.349785 Z" id="path-16"></path>
        <filter x="-24.2%" y="-20.3%" width="148.5%" height="145.4%" filterUnits="objectBoundingBox" id="filter-17">
            <feOffset dx="0" dy="3" in="SourceAlpha" result="shadowOffsetOuter1"></feOffset>
            <feGaussianBlur stdDeviation="9" in="shadowOffsetOuter1" result="shadowBlurOuter1"></feGaussianBlur>
            <feColorMatrix values="0 0 0 0 0   0 0 0 0 0   0 0 0 0 0  0 0 0 0.5 0" type="matrix" in="shadowBlurOuter1"></feColorMatrix>
        </filter>
        <path d="M0.216063989,105.116484 L29.8974297,81.3958585 C42.5813463,71.2591811 42.5813463,54.7788562 29.8974297,44.5860225 L1.0658141e-14,20.5603577 L16.2511595,7.57282662 C28.9350761,-2.56385079 49.4997681,-2.51832713 62.1836847,7.67450655 L108.11621,44.5860225 C120.800127,54.7788562 120.800127,71.2591811 108.11621,81.3958585 L62.1836847,118.104015 C49.4997681,128.240692 28.9350761,128.195168 16.2511595,118.002335 L0.216063989,105.116484 Z" id="path-18"></path>
        <filter x="-25.5%" y="-19.1%" width="151.0%" height="147.7%" filterUnits="objectBoundingBox" id="filter-19">
            <feOffset dx="0" dy="6" in="SourceAlpha" result="shadowOffsetOuter1"></feOffset>
            <feGaussianBlur stdDeviation="9" in="shadowOffsetOuter1" result="shadowBlurOuter1"></feGaussianBlur>
            <feColorMatrix values="0 0 0 0 0   0 0 0 0 0   0 0 0 0 0  0 0 0 0.5 0" type="matrix" in="shadowBlurOuter1"></feColorMatrix>
        </filter>
        <path d="M282.500672,128.349785 L312.182038,104.62916 C324.865954,94.4924822 324.865954,78.0121573 312.182038,67.8193236 L282.284608,43.7936588 L298.535767,30.8061277 C311.219684,20.6694503 331.784376,20.7149739 344.468293,30.9078076 L390.400818,67.8193236 C403.084734,78.0121573 403.084734,94.4924822 390.400818,104.62916 L344.468293,141.337316 C331.784376,151.473993 311.219684,151.428469 298.535767,141.235636 L282.500672,128.349785 Z" id="path-20"></path>
        <filter x="-24.2%" y="-20.3%" width="148.5%" height="145.4%" filterUnits="objectBoundingBox" id="filter-21">
            <feOffset dx="0" dy="3" in="SourceAlpha" result="shadowOffsetOuter1"></feOffset>
            <feGaussianBlur stdDeviation="9" in="shadowOffsetOuter1" result="shadowBlurOuter1"></feGaussianBlur>
            <feColorMatrix values="0 0 0 0 0   0 0 0 0 0   0 0 0 0 0  0 0 0 0.5 0" type="matrix" in="shadowBlurOuter1"></feColorMatrix>
        </filter>
        <path d="M282.500672,105.116484 L312.182038,81.3958585 C324.865954,71.2591811 324.865954,54.7788562 312.182038,44.5860225 L282.284608,20.5603577 L298.535767,7.57282662 C311.219684,-2.56385079 331.784376,-2.51832713 344.468293,7.67450655 L390.400818,44.5860225 C403.084734,54.7788562 403.084734,71.2591811 390.400818,81.3958585 L344.468293,118.104015 C331.784376,128.240692 311.219684,128.195168 298.535767,118.002335 L282.500672,105.116484 Z" id="path-22"></path>
        <filter x="-25.5%" y="-19.1%" width="151.0%" height="147.7%" filterUnits="objectBoundingBox" id="filter-23">
            <feOffset dx="0" dy="6" in="SourceAlpha" result="shadowOffsetOuter1"></feOffset>
            <feGaussianBlur stdDeviation="9" in="shadowOffsetOuter1" result="shadowBlurOuter1"></feGaussianBlur>
            <feColorMatrix values="0 0 0 0 0   0 0 0 0 0   0 0 0 0 0  0 0 0 0.5 0" type="matrix" in="shadowBlurOuter1"></feColorMatrix>
        </filter>
    </defs>
    <g id="Page-1" stroke="none" stroke-width="1" fill="none" fill-rule="evenodd">
        <g id="Group-7" transform="translate(17.000000, 12.000000)">
            <g id="Group-6">
                <g id="Combined-Shape">
                    <use fill="black" fill-opacity="1" filter="url(#filter-2)" xlink:href="#path-1"></use>
                    <use fill="#292C34" fill-rule="evenodd" xlink:href="#path-1"></use>
                </g>
                <g id="Test-UI-2.3">
                    <use fill="black" fill-opacity="1" filter="url(#filter-5)" xlink:href="#path-4"></use>
                    <use fill="url(#linearGradient-3)" fill-rule="evenodd" xlink:href="#path-4"></use>
                </g>
                <g id="Test-UI-2.2">
                    <use fill="black" fill-opacity="1" filter="url(#filter-8)" xlink:href="#path-7"></use>
                    <use fill="url(#linearGradient-6)" fill-rule="evenodd" xlink:href="#path-7"></use>
                </g>
                <g id="Combined-Shape">
                    <use fill="black" fill-opacity="1" filter="url(#filter-10)" xlink:href="#path-9"></use>
                    <use fill="#292C34" fill-rule="evenodd" xlink:href="#path-9"></use>
                </g>
                <g id="Test-UI-2.1">
                    <use fill="black" fill-opacity="1" filter="url(#filter-13)" xlink:href="#path-12"></use>
                    <use fill="url(#linearGradient-11)" fill-rule="evenodd" xlink:href="#path-12"></use>
                </g>
                <g id="Combined-Shape" transform="translate(58.814574, 109.305023) scale(-1, 1) translate(-58.814574, -109.305023) ">
                    <use fill="black" fill-opacity="1" filter="url(#filter-15)" xlink:href="#path-14"></use>
                    <use fill="#292C34" fill-rule="evenodd" xlink:href="#path-14"></use>
                </g>
                <g id="Combined-Shape" transform="translate(58.814574, 86.071722) scale(-1, 1) translate(-58.814574, -86.071722) ">
                    <use fill="black" fill-opacity="1" filter="url(#filter-17)" xlink:href="#path-16"></use>
                    <use fill="#6DD400" fill-rule="evenodd" xlink:href="#path-16"></use>
                </g>
                <g id="Combined-Shape" transform="translate(58.814574, 62.838421) scale(-1, 1) translate(-58.814574, -62.838421) ">
                    <use fill="black" fill-opacity="1" filter="url(#filter-19)" xlink:href="#path-18"></use>
                    <use fill="#292C34" fill-rule="evenodd" xlink:href="#path-18"></use>
                </g>
                <g id="Combined-Shape">
                    <use fill="black" fill-opacity="1" filter="url(#filter-21)" xlink:href="#path-20"></use>
                    <use fill="#6DD400" fill-rule="evenodd" xlink:href="#path-20"></use>
                </g>
                <g id="Combined-Shape">
                    <use fill="black" fill-opacity="1" filter="url(#filter-23)" xlink:href="#path-22"></use>
                    <use fill="#292C34" fill-rule="evenodd" xlink:href="#path-22"></use>
                </g>
            </g>
            <text id="CORBIND" fill="#292C34" font-family="Apple-Chancery, Apple Chancery" font-size="80" font-weight="normal">
                <tspan x="436.082031" y="112">CORBIND</tspan>
            </text>
        </g>
    </g>
</svg>